<svg width="40" height="40" viewBox="0 0 40 40" fill="none" xmlns="http://www.w3.org/2000/svg">
<g clip-path="url(#clip0_990_183)">
<path fill-rule="evenodd" clip-rule="evenodd" d="M20.1483 5.45764C33.9224 5.45764 28.5541 28.2836 20.1483 28.2836C12.2091 28.2836 6.37414 5.45764 20.1483 5.45764Z" fill="#FFE8BE"/>
<path d="M20 40C31.0457 40 40 31.0457 40 20C40 8.9543 31.0457 0 20 0C8.9543 0 0 8.9543 0 20C0 31.0457 8.9543 40 20 40Z" fill="#58B0E0"/>
<path fill-rule="evenodd" clip-rule="evenodd" d="M29.4415 12.9366L10.5593 13.0499C10.5593 13.0499 11.2376 23.5017 8.86411 26.7781H31.9716C31.3762 25.9043 29.8014 25.6228 29.4415 12.9366Z" fill="#60350A"/>
<path fill-rule="evenodd" clip-rule="evenodd" d="M11.7379 29.514L16.402 27.4513L23.8778 27.2571L28.6804 29.7794L25.213 37.0383L20.2855 39.6843L15.1884 36.8688L11.7379 29.514Z" fill="#D5E1ED"/>
<path fill-rule="evenodd" clip-rule="evenodd" d="M16.0156 25.0356L24.3852 25.09V30.8823L16.0156 30.8272V25.0356Z" fill="#F9DCA4"/>
<path opacity="0.11" fill-rule="evenodd" clip-rule="evenodd" d="M24.3865 25.0991V27.4162C24.3956 27.681 24.3869 27.9461 24.3606 28.2097C24.3216 28.502 24.2537 28.7897 24.158 29.0686C21.3295 31.7644 16.7929 29.5735 16.0739 24.9696L24.3865 25.0991Z" fill="black"/>
<path fill-rule="evenodd" clip-rule="evenodd" d="M34.1729 34.1108C32.299 35.9932 30.0689 37.4834 27.6128 38.4945C25.1567 39.5055 22.5238 40.0172 19.8677 39.9995C17.2117 39.9819 14.5858 39.4353 12.1433 38.3917C9.70088 37.348 7.49079 35.8283 5.64209 33.9212L6.43238 31.916L12.3243 29.248C14.4356 33.1186 16.7321 36.707 20.2965 39.2513C23.523 36.5656 26.1366 33.2197 27.9613 29.439L33.2325 31.9328L34.1729 34.1108Z" fill="#434955"/>
<path fill-rule="evenodd" clip-rule="evenodd" d="M12.369 15.6525C10.4544 16.4874 12.0829 20.4486 13.2881 20.4311C12.788 18.8817 12.4793 17.2769 12.369 15.6525Z" fill="#F9DCA4"/>
<path fill-rule="evenodd" clip-rule="evenodd" d="M28.16 15.6519C30.0758 16.4881 28.4467 20.4486 27.2415 20.4312C27.7415 18.8815 28.0499 17.2765 28.16 15.6519Z" fill="#F9DCA4"/>
<path fill-rule="evenodd" clip-rule="evenodd" d="M20.1386 5.60913C25.7839 5.60913 28.1496 9.62209 28.2946 14.2609C28.4933 20.6105 24.6214 28.1315 20.1392 28.1315C15.8932 28.1315 11.9152 20.3529 12.1567 13.9386C12.3249 9.43827 14.6253 5.60913 20.1386 5.60913Z" fill="#FFE8BE"/>
<path fill-rule="evenodd" clip-rule="evenodd" d="M21.6175 16.1702C22.6289 15.5524 23.8306 15.324 24.9981 15.5275H25.0014C28.3373 15.9353 28.3891 16.9722 28.0648 17.211C27.8477 17.3904 27.674 17.6165 27.5567 17.8725C27.4842 18.5483 27.2507 19.1969 26.8758 19.7638C26.6261 20.1549 26.2979 20.4899 25.9119 20.7475C25.526 21.0051 25.0907 21.1797 24.6337 21.2602C24.525 21.2777 24.4137 21.2913 24.2997 21.2978C23.8544 21.3297 23.4078 21.2551 22.997 21.0802C22.5862 20.9053 22.2229 20.6351 21.9373 20.2919C21.5242 19.8069 21.2003 19.2525 20.9806 18.6544V18.6563C20.9806 18.6563 20.4648 17.5974 19.6395 18.5826C19.4179 19.2071 19.0845 19.7861 18.6557 20.2913C18.37 20.6346 18.0066 20.9049 17.5957 21.0799C17.1848 21.2549 16.7381 21.3296 16.2926 21.2978C16.1807 21.2908 16.0693 21.2783 15.9586 21.2602C15.5016 21.1797 15.0664 21.0051 14.6804 20.7475C14.2945 20.4899 13.9662 20.1549 13.7165 19.7638C13.3417 19.1971 13.1083 18.5487 13.0356 17.8732C12.9239 17.6163 12.7532 17.3895 12.5372 17.211C12.2136 16.9715 12.2622 15.934 15.5981 15.5262H15.5994C16.7718 15.3237 17.9778 15.5562 18.991 16.18L18.9903 16.1793L18.9923 16.1806L19.1314 16.2654C19.5194 16.4638 19.9519 16.5591 20.3873 16.5424C20.8228 16.5256 21.2466 16.3972 21.6182 16.1696L21.6175 16.1702ZM18.5936 16.5832C17.992 16.2358 17.3152 16.0394 16.6212 16.0109C15.9271 15.9823 15.2365 16.1225 14.6085 16.4194C13.6305 16.8635 13.3321 17.1767 13.7114 18.4667C13.8141 18.8186 13.9695 19.1529 14.1722 19.4583C14.401 19.8306 14.7161 20.1422 15.0908 20.367C15.4655 20.5918 15.8888 20.723 16.325 20.7496C16.6873 20.7745 17.0504 20.7128 17.3842 20.5697C17.7181 20.4265 18.013 20.206 18.2447 19.9262C18.6284 19.4723 18.9267 18.9526 19.125 18.3923C19.5645 17.2402 19.6829 17.1864 18.5942 16.5832H18.5936ZM25.679 16.2919C25.0581 16.0587 24.3921 15.9704 23.7318 16.0337C23.0716 16.0971 22.4345 16.3105 21.8693 16.6576C20.8738 17.2473 21.0551 17.3457 21.4952 18.4635C21.691 18.9973 21.9793 19.4925 22.347 19.9262C22.5788 20.2061 22.8738 20.4267 23.2078 20.5698C23.5417 20.713 23.9049 20.7746 24.2674 20.7496C24.3606 20.744 24.4535 20.7336 24.5457 20.7185C24.9283 20.6496 25.2925 20.502 25.6152 20.2851C25.9378 20.0682 26.2119 19.7866 26.4201 19.4583C26.6115 19.1703 26.7605 18.8565 26.8629 18.5262C27.3172 17.0699 26.9121 16.7457 25.6797 16.2926L25.679 16.2919Z" fill="#464449"/>
<path fill-rule="evenodd" clip-rule="evenodd" d="M11.5793 16.5748C11.5793 16.1618 12.2162 16.0013 12.6136 18.4797C12.9346 17.4673 13.1421 16.4225 13.2324 15.3644C13.9845 15.5101 14.7069 17.2078 14.4797 18.6965C16.5289 18.1936 21.7955 15.0156 23.5082 10.7198C27.8914 13.2447 27.8674 18.5476 27.8674 18.5476C27.8674 18.5476 28.0991 17.3178 28.2286 16.2719C28.2713 15.9237 28.4182 15.7974 28.7451 16.134C31.1153 11.2253 27.3787 3.72168 20.257 3.60517C10.4784 3.44595 9.23434 14.035 11.58 16.5754L11.5793 16.5748Z" fill="#8A5C42"/>
<path fill-rule="evenodd" clip-rule="evenodd" d="M16.0292 27.4635C17.0518 28.9874 18.5094 30.1683 20.2124 30.8525L17.4887 34.8292L13.6589 28.4991L16.0292 27.4635Z" fill="white"/>
<path fill-rule="evenodd" clip-rule="evenodd" d="M24.3897 27.4635C23.3671 28.9874 21.9095 30.1683 20.2065 30.8525L22.9308 34.8292L26.7839 28.5716L24.3897 27.4635Z" fill="white"/>
<path d="M20.2092 34.5641C20.5091 34.5641 20.7523 34.3209 20.7523 34.021C20.7523 33.721 20.5091 33.4779 20.2092 33.4779C19.9093 33.4779 19.6661 33.721 19.6661 34.021C19.6661 34.3209 19.9093 34.5641 20.2092 34.5641Z" fill="#434955"/>
<path d="M20.2092 36.9776C20.5091 36.9776 20.7523 36.7345 20.7523 36.4346C20.7523 36.1346 20.5091 35.8915 20.2092 35.8915C19.9093 35.8915 19.6661 36.1346 19.6661 36.4346C19.6661 36.7345 19.9093 36.9776 20.2092 36.9776Z" fill="#434955"/>
<path fill-rule="evenodd" clip-rule="evenodd" d="M27.1826 16.0111C28.3373 16.472 28.2952 17.0344 28.0674 17.2027C27.8503 17.3821 27.6767 17.6082 27.5593 17.8642C27.5087 18.3319 27.3815 18.788 27.1826 19.2144V16.0111ZM13.2868 18.9101C13.1604 18.5735 13.0769 18.2223 13.0382 17.8648C12.9266 17.608 12.7558 17.3811 12.5398 17.2027C12.3217 17.0415 12.2725 16.5166 13.2868 16.0674V18.9101Z" fill="#464449"/>
</g>
<defs>
<clipPath id="clip0_990_183">
<rect width="40" height="40" fill="white"/>
</clipPath>
</defs>
</svg>
